<svg width="28" height="28" viewBox="0 0 28 28" fill="none" xmlns="http://www.w3.org/2000/svg">
<circle cx="14" cy="14" r="14" fill="#0052B4"/>
<path d="M25.1252 5.5L16.6251 14.0001L25.1252 22.5002C24.3702 23.4869 23.4869 24.3702 22.5002 25.1252L14.0001 16.6251L5.5 25.1252C4.51332 24.3702 3.63001 23.4869 2.875 22.5002L11.3751 14.0001L2.875 5.5C3.63001 4.51332 4.51332 3.63001 5.5 2.875L14.0001 11.3751L22.5002 2.875C23.4869 3.63001 24.3702 4.51332 25.1252 5.5Z" fill="#EEEEEE"/>
<path d="M15.7501 0.108228C16.3459 0.182519 16.93 0.294245 17.5001 0.440976L17.5001 10.4999L27.559 10.4999C27.7058 11.07 27.8175 11.6542 27.8918 12.2499L26.2501 13.9999L27.8918 15.7499C27.8175 16.3457 27.7058 16.9299 27.559 17.4999L17.5001 17.4999L17.5001 27.5589C16.93 27.7056 16.3459 27.8173 15.7501 27.8916L14.0001 26.2499L12.2501 27.8916C11.6543 27.8173 11.0702 27.7056 10.5001 27.5589L10.5001 17.4999L0.441155 17.4999C0.294423 16.9299 0.182697 16.3457 0.108405 15.7499L1.75009 13.9999L0.108398 12.2499C0.182688 11.6542 0.294412 11.07 0.441141 10.4999L10.5001 10.4999L10.5001 0.440976C11.0702 0.294245 11.6543 0.182519 12.2501 0.108228L14.0001 1.74995L15.7501 0.108228Z" fill="#EEEEEE"/>
<path d="M15.75 0.108313C15.1856 0.0379358 14.6108 0.00115259 14.0276 2.60897e-05L13.9724 2.60921e-05C13.3892 0.00115265 12.8144 0.0379359 12.25 0.108313L12.25 12.25L0.10831 12.25C0.036824 12.8233 -6.37865e-07 13.4074 -6.11959e-07 14C-5.86053e-07 14.5927 0.0368264 15.1767 0.108317 15.75L12.25 15.75L12.25 27.8917C12.8233 27.9632 13.4073 28 14 28C14.5927 28 15.1767 27.9632 15.75 27.8917L15.75 15.75L27.8917 15.75C27.9632 15.1767 28 14.5927 28 14C28 13.4074 27.9632 12.8233 27.8917 12.25L15.75 12.25L15.75 0.108313Z" fill="#D80027"/>
<path fill-rule="evenodd" clip-rule="evenodd" d="M22.9861 3.26392C23.3029 3.5293 23.6077 3.80843 23.8996 4.10041L17.5001 10.4999V8.7499L22.9861 3.26392ZM3.26416 5.01392C3.52954 4.69719 3.80868 4.39238 4.10065 4.10041L10.5001 10.4999H8.75014L3.26416 5.01392ZM23.8996 23.8994C24.1916 23.6074 24.4707 23.3026 24.7361 22.9859L19.2501 17.4999H17.5001L23.8996 23.8994ZM5.01416 24.7359L10.5001 19.2499V17.4999L4.10065 23.8994C4.39262 24.1914 4.69743 24.4705 5.01416 24.7359Z" fill="#D80027"/>
</svg>
