<svg width="28" height="28" viewBox="0 0 28 28" fill="none" xmlns="http://www.w3.org/2000/svg">
<path d="M28 14C28 21.732 21.732 28 14 28C6.26801 28 0 21.732 0 14C0 6.26801 6.26801 0 14 0C21.732 0 28 6.26801 28 14Z" fill="#D80027"/>
<path d="M8.48259 13.9728C8.48259 17.6388 11.4338 20.6108 15.0742 20.6108C16.2093 20.6108 17.2773 20.3217 18.2097 19.8127C16.747 21.2533 14.7466 22.1425 12.539 22.1425C8.05847 22.1425 4.42627 18.4847 4.42627 13.9727C4.42627 9.46062 8.05838 5.80287 12.539 5.80287C14.7464 5.80287 16.7469 6.69194 18.2097 8.13261C17.2773 7.62385 16.2093 7.33474 15.0742 7.33474C11.4338 7.33474 8.48259 10.3067 8.48259 13.9728Z" fill="#EEEEEE"/>
<path d="M22.2107 12.3333L20.297 9.67756L20.295 12.9589L17.1956 13.971L20.2939 14.9868L20.2919 18.2679L22.2086 15.6145L25.3068 16.6304L23.3933 13.9747L25.31 11.3213L22.2107 12.3333Z" fill="#EEEEEE"/>
</svg>
