<!DOCTYPE svg PUBLIC "-//W3C//DTD SVG 1.1//EN" "http://www.w3.org/Graphics/SVG/1.1/DTD/svg11.dtd">

<!-- Uploaded to: SVG Repo, www.svgrepo.com, Transformed by: SVG Repo Mixer Tools -->
<svg fill="#fff" version="1.1" id="Capa_1" xmlns="http://www.w3.org/2000/svg" xmlns:xlink="http://www.w3.org/1999/xlink" width="46px" height="46px" viewBox="0 0 369.949 369.949" xml:space="preserve" stroke="#fff">

<g id="SVGRepo_bgCarrier" stroke-width="0"/>

<g id="SVGRepo_tracerCarrier" stroke-linecap="round" stroke-linejoin="round"/>

<g id="SVGRepo_iconCarrier"> <g> <g> <path d="M184.972,0.003C82.821,0.003,0,82.821,0,184.975s82.821,184.972,184.972,184.972c102.16,0,184.978-82.818,184.978-184.972 S287.132,0.003,184.972,0.003z M184.972,353.512c-92.927,0-168.536-75.606-168.536-168.537 c0-92.93,75.609-168.536,168.536-168.536c92.931,0,168.537,75.606,168.537,168.536 C353.509,277.905,277.908,353.512,184.972,353.512z"/> <path d="M239.573,51.936v139.669l10.575-10.572c5.212-5.215,13.643-5.215,18.849,0c5.206,5.209,5.206,13.646,0,18.846 l-33.32,33.32l-0.013,0.019l-9.421,9.415l-9.41-9.415l-0.023-0.019l-31.099-31.099c-5.209-5.212-5.209-13.646,0-18.849 c5.206-5.206,13.643-5.206,18.849,0l8.353,8.347V46.588c0-0.918,0.103-1.801,0.271-2.675c-9.128-1.822-18.555-2.81-28.211-2.81 c-79.326,0-143.866,64.54-143.866,143.866c0,57.016,33.438,106.255,81.656,129.518V178.475l-10.568,10.571 c-2.6,2.606-6.014,3.909-9.428,3.909c-3.411,0-6.818-1.303-9.424-3.909c-5.209-5.209-5.209-13.646,0-18.846l33.32-33.324 c0.006-0.006,0.006-0.006,0.006-0.006l9.427-9.424l9.419,9.412c0,0,0.006,0.012,0.018,0.018l31.102,31.102 c5.209,5.209,5.209,13.646,0,18.846c-5.209,5.212-13.646,5.212-18.852,0l-8.35-8.344v145.013c0,0.24-0.057,0.469-0.069,0.709 c11.412,2.924,23.305,4.636,35.614,4.636c79.33,0,143.881-64.54,143.881-143.863C328.847,124.975,291.894,73.49,239.573,51.936z"/> </g> </g> </g>

</svg>