<!DOCTYPE svg PUBLIC "-//W3C//DTD SVG 1.1//EN" "http://www.w3.org/Graphics/SVG/1.1/DTD/svg11.dtd">

<!-- Uploaded to: SVG Repo, www.svgrepo.com, Transformed by: SVG Repo Mixer Tools -->
<svg fill="#fff" width="46px" height="46px" viewBox="0 0 32 32" version="1.1" xmlns="http://www.w3.org/2000/svg" stroke="#fff">

<g id="SVGRepo_bgCarrier" stroke-width="0"/>

<g id="SVGRepo_tracerCarrier" stroke-linecap="round" stroke-linejoin="round"/>

<g id="SVGRepo_iconCarrier"> <title>chain</title> <path d="M0 22.944q0 2.464 1.76 4.224l3.072 3.104q1.76 1.728 4.224 1.728t4.256-1.728l2.688-2.976q1.376-1.344 1.664-3.232t-0.512-3.552l-6.784 6.784q-0.576 0.576-1.408 0.576t-1.44-0.576l-2.816-2.816q-0.576-0.608-0.576-1.408t0.576-1.408l6.784-6.816q-1.632-0.8-3.52-0.512t-3.264 1.664l-2.944 2.72q-1.76 1.76-1.76 4.224zM9.792 20.256q0 0.832 0.576 1.408t1.408 0.576 1.408-0.576l8.48-8.48q0.576-0.576 0.576-1.408t-0.576-1.408q-0.608-0.576-1.44-0.576t-1.408 0.576l-8.448 8.48q-0.576 0.576-0.576 1.408zM14.336 7.968q-0.288 1.888 0.512 3.552l6.816-6.816q0.576-0.576 1.408-0.576t1.408 0.576l2.816 2.848q0.576 0.576 0.576 1.408t-0.576 1.408l-6.784 6.784q1.632 0.832 3.52 0.512t3.264-1.664l2.944-2.944q1.76-1.76 1.76-4.224t-1.76-4.256l-2.816-2.816q-1.76-1.76-4.224-1.76t-4.256 1.76l-2.944 2.944q-1.344 1.376-1.664 3.264z"/> </g>

</svg>