<!DOCTYPE svg PUBLIC "-//W3C//DTD SVG 1.1//EN" "http://www.w3.org/Graphics/SVG/1.1/DTD/svg11.dtd">

<!-- Uploaded to: SVG Repo, www.svgrepo.com, Transformed by: SVG Repo Mixer Tools -->
<svg height="46px" width="46px" version="1.1" id="_x32_" xmlns="http://www.w3.org/2000/svg" xmlns:xlink="http://www.w3.org/1999/xlink" viewBox="0 0 512 512" xml:space="preserve" fill="#fff" stroke="#fff">

<g id="SVGRepo_bgCarrier" stroke-width="0"/>

<g id="SVGRepo_tracerCarrier" stroke-linecap="round" stroke-linejoin="round"/>

<g id="SVGRepo_iconCarrier"> <style type="text/css"> .st0{fill:#fff;} </style> <g> <path class="st0" d="M436.848,74.795C390.615,28.539,326.547-0.018,256.004,0.004c-70.443-0.008-134.488,28.42-180.679,74.632 C28.933,121-0.015,185.139,0,255.985c-0.007,70.652,28.673,134.748,74.986,181.032c46.277,46.305,110.373,74.986,181.025,74.978 c21.216,0,41.74-2.74,61.341-7.586l4.378-1.082l0.173-0.188c0,0-0.007,0.015,0,0.015l181.256-181.256 c-0.022,0-0.036-0.006-0.058-0.006l0.245-0.231l1.082-4.363c4.824-19.572,7.58-40.096,7.572-61.313 C512.015,185.24,483.197,121.129,436.848,74.795z M477.096,303.993c-1.017,0.209-2.35,0.425-3.974,0.562 c-2.942,0.282-6.728,0.375-11.055,0.289l-0.252-0.007h0.144c-13.24-0.101-32.322-1.919-53.842,1.543l0.029-0.007 c-21.678,3.411-45.902,13.182-66.981,34.327l-0.188,0.18l-0.036,0.044l-0.144,0.144l-0.029,0.029 c-16.039,16.025-25.738,33.909-30.793,51.188c-7.572,25.825-5.546,49.385-5.214,65.712l0.008,0.072 c0.26,8.076,0.05,14.798-0.613,18.209c-0.065,0.346-0.122,0.534-0.188,0.829c-15.534,3.382-31.514,5.351-47.964,5.351 c-62.582,0-119.106-25.32-160.133-66.325c-41.012-41.027-66.324-97.558-66.339-160.148c0.015-62.726,25.536-119.293,66.678-160.464 c40.889-40.868,97.356-65.979,159.794-65.986c62.502,0.007,118.998,25.218,159.96,66.152 c41.07,41.098,66.491,97.645,66.506,160.299C482.461,272.443,480.493,288.452,477.096,303.993z"/> <path class="st0" d="M221.554,221.637c-0.396-0.699-0.987-1.097-1.853-0.923l-15.577,3.065c-0.866,0.166-1.262,0.75-1.363,1.551 l-12.88,87.267c-0.101,0.793,0.245,1.24,1.111,1.067l16.19-3.18c0.865-0.173,1.284-0.634,1.355-1.558l1.81-15.628l29.423-5.784 l7.71,13.752c0.418,0.83,0.988,1.096,1.854,0.931l16.067-3.166c0.866-0.166,1.01-0.714,0.62-1.407L221.554,221.637z M212.374,276.848l3.729-31.298l0.374-0.072l15.31,27.555L212.374,276.848z"/> <path class="st0" d="M147.772,269.651l-4.564,0.252c-9.924,0.541-13.984-1.875-14.928-6.692c-1.046-5.316,2.026-9.902,9.447-11.358 c6.916-1.363,13.536-0.354,20.798,2.582c0.678,0.253,1.276,0.008,1.644-0.706l5.337-12.736c0.447-0.988,0.23-1.45-0.613-1.804 c-8.113-4.045-19.154-5.351-30.274-3.158c-18.174,3.57-27.772,16.118-24.736,31.572c2.921,14.834,14.012,20.986,31.536,19.983 l4.572-0.252c10.269-0.606,13.846,1.896,14.827,6.843c1.162,5.935-2.986,10.983-11.755,12.707 c-8.898,1.752-17.271-0.966-23.711-4.326c-0.707-0.375-1.45-0.231-1.825,0.498l-7.276,12.598c-0.484,0.858-0.058,1.681,0.533,2.078 c7.788,5.012,21.541,7.701,34.644,5.12c21.758-4.276,30.794-17.74,27.808-32.942C176.244,274.707,165.534,268.599,147.772,269.651z "/> <path class="st0" d="M331.329,269.255l-37.082,7.291c-0.49,0.094-0.787-0.108-0.887-0.598L280.4,210.062 c-0.144-0.75-0.728-1.147-1.471-0.995l-15.7,3.087c-0.743,0.144-1.147,0.735-1.002,1.486l16.045,81.577 c0.152,0.736,0.743,1.14,1.486,0.996l54.757-10.774c0.75-0.144,1.139-0.736,0.995-1.478l-2.698-13.724 C332.67,269.493,332.078,269.103,331.329,269.255z"/> <path class="st0" d="M398.576,256.534l-36.224,7.118c-0.49,0.101-0.793-0.094-0.887-0.584l-3.425-17.437 c-0.101-0.49,0.1-0.786,0.591-0.887l30.166-5.928c0.735-0.144,1.139-0.736,0.988-1.478l-2.574-13.104 c-0.145-0.736-0.743-1.132-1.478-0.987l-30.159,5.928c-0.49,0.101-0.793-0.101-0.894-0.592l-3.281-16.688 c-0.094-0.504,0.108-0.793,0.598-0.894l36.224-7.126c0.736-0.144,1.132-0.736,0.988-1.478l-2.596-13.218 c-0.152-0.75-0.743-1.147-1.478-0.996l-53.899,10.594c-0.743,0.152-1.14,0.736-0.988,1.486l16.039,81.577 c0.144,0.743,0.735,1.147,1.478,0.995l53.899-10.594c0.736-0.151,1.132-0.743,0.988-1.486l-2.597-13.226 C399.903,256.786,399.312,256.383,398.576,256.534z"/> </g> </g>

</svg>