<!DOCTYPE svg PUBLIC "-//W3C//DTD SVG 1.1//EN" "http://www.w3.org/Graphics/SVG/1.1/DTD/svg11.dtd">

<!-- Uploaded to: SVG Repo, www.svgrepo.com, Transformed by: SVG Repo Mixer Tools -->
<svg width="46px" height="46px" viewBox="0 0 24 24" id="Layer_1" data-name="Layer 1" xmlns="http://www.w3.org/2000/svg" fill="#fff" stroke="#fff">

<g id="SVGRepo_bgCarrier" stroke-width="0"/>

<g id="SVGRepo_tracerCarrier" stroke-linecap="round" stroke-linejoin="round"/>

<g id="SVGRepo_iconCarrier">

<defs>

<style>.cls-1{fill:none;stroke:#fff;stroke-miterlimit:10;stroke-width:1.91px;}</style>

</defs>

<polygon class="cls-1" points="3.41 14.86 1.5 19.64 1.5 22.5 22.5 22.5 22.5 19.64 20.59 14.86 3.41 14.86"/>

<line class="cls-1" x1="5.32" y1="18.68" x2="7.23" y2="18.68"/>

<line class="cls-1" x1="9.14" y1="18.68" x2="11.05" y2="18.68"/>

<line class="cls-1" x1="16.77" y1="18.68" x2="18.68" y2="18.68"/>

<rect class="cls-1" x="3.41" y="1.5" width="17.18" height="13.36"/>

<path class="cls-1" d="M13.91,10.09V5.32H10.09v4.77L7.62,12.56a1.36,1.36,0,0,0-.39.95h0a1.34,1.34,0,0,0,1.35,1.35h6.84a1.34,1.34,0,0,0,1.35-1.35h0a1.36,1.36,0,0,0-.39-.95Z"/>

<line class="cls-1" x1="8.18" y1="5.32" x2="15.82" y2="5.32"/>

</g>

</svg>