<svg width="24" height="24" viewBox="0 0 24 24" fill="none" xmlns="http://www.w3.org/2000/svg">
<path d="M11.9999 2.50228V12.0023M11.9999 12.0023L20.4999 7.27999M11.9999 12.0023L3.49988 7.27999M11.9999 12.0023V21.5023M20.4999 16.7245L12.7769 12.434C12.4933 12.2764 12.3515 12.1976 12.2013 12.1667C12.0684 12.1394 11.9313 12.1394 11.7984 12.1667C11.6483 12.1976 11.5065 12.2764 11.2229 12.434L3.49988 16.7245M20.9999 16.0608V7.94373C20.9999 7.60108 20.9999 7.42976 20.9494 7.27696C20.9047 7.14179 20.8317 7.01771 20.7352 6.91302C20.6262 6.79468 20.4764 6.71148 20.1769 6.54507L12.7769 2.43396C12.4933 2.27641 12.3515 2.19763 12.2013 2.16674C12.0684 2.13941 11.9313 2.13941 11.7984 2.16674C11.6483 2.19763 11.5065 2.27641 11.2228 2.43396L3.82285 6.54508C3.52333 6.71148 3.37356 6.79468 3.26451 6.91302C3.16804 7.01771 3.09503 7.14179 3.05036 7.27697C2.99988 7.42976 2.99988 7.60109 2.99988 7.94373V16.0608C2.99988 16.4035 2.99988 16.5748 3.05036 16.7276C3.09503 16.8628 3.16804 16.9869 3.26451 17.0915C3.37356 17.2099 3.52333 17.2931 3.82285 17.4595L11.2229 21.5706C11.5065 21.7282 11.6483 21.8069 11.7984 21.8378C11.9313 21.8652 12.0684 21.8652 12.2013 21.8378C12.3515 21.8069 12.4933 21.7282 12.7769 21.5706L20.1769 17.4595C20.4764 17.2931 20.6262 17.2099 20.7352 17.0915C20.8317 16.9869 20.9047 16.8628 20.9494 16.7276C20.9999 16.5748 20.9999 16.4035 20.9999 16.0608Z" stroke="#C23893" stroke-width="2" stroke-linecap="round" stroke-linejoin="round"/>
</svg>
