<svg width="24" height="24" viewBox="0 0 24 24" fill="none" xmlns="http://www.w3.org/2000/svg">
<path d="M20.4999 16.0023H7.99988M7.99988 16.0023V3.50232M7.99988 16.0023L3.49988 20.5023M3.49988 8.00232H15.9999M15.9999 8.00232V20.5023M15.9999 8.00232L20.4999 3.50232M20.9999 15.3396V3.80232C20.9999 3.52229 20.9999 3.38228 20.9454 3.27532C20.8974 3.18124 20.821 3.10475 20.7269 3.05682C20.6199 3.00232 20.4799 3.00232 20.1999 3.00232H8.66262C8.41803 3.00232 8.29573 3.00232 8.18065 3.02995C8.07861 3.05445 7.98107 3.09485 7.89159 3.14968C7.79068 3.21152 7.7042 3.298 7.53125 3.47095L3.46851 7.53369C3.29556 7.70664 3.20908 7.79312 3.14724 7.89403C3.09241 7.98351 3.052 8.08105 3.02751 8.18309C2.99988 8.29817 2.99988 8.42047 2.99988 8.66506V20.2023C2.99988 20.4823 2.99988 20.6224 3.05437 20.7293C3.10231 20.8234 3.1788 20.8999 3.27288 20.9478C3.37984 21.0023 3.51985 21.0023 3.79988 21.0023H15.3371C15.5817 21.0023 15.704 21.0023 15.8191 20.9747C15.9211 20.9502 16.0187 20.9098 16.1082 20.855C16.2091 20.7931 16.2956 20.7066 16.4685 20.5337L20.5312 16.4709C20.7042 16.298 20.7907 16.2115 20.8525 16.1106C20.9073 16.0211 20.9478 15.9236 20.9722 15.8216C20.9999 15.7065 20.9999 15.5842 20.9999 15.3396Z" stroke="#C23893" stroke-width="2" stroke-linecap="round" stroke-linejoin="round"/>
</svg>
