<svg width="24" height="24" viewBox="0 0 24 24" fill="none" xmlns="http://www.w3.org/2000/svg">
<path d="M11.9999 2.00232L10.6984 7.20831C10.4444 8.22417 10.3174 8.7321 10.053 9.14541C9.81903 9.511 9.50855 9.82147 9.14297 10.0554C8.72965 10.3199 8.22173 10.4469 7.20587 10.7008L1.99988 12.0023L7.20587 13.3038C8.22173 13.5578 8.72966 13.6848 9.14297 13.9492C9.50855 14.1832 9.81903 14.4936 10.053 14.8592C10.3174 15.2725 10.4444 15.7805 10.6984 16.7963L11.9999 22.0023L13.3014 16.7963C13.5553 15.7805 13.6823 15.2725 13.9468 14.8592C14.1807 14.4936 14.4912 14.1832 14.8568 13.9492C15.2701 13.6848 15.778 13.5578 16.7939 13.3038L21.9999 12.0023L16.7939 10.7008C15.778 10.4469 15.2701 10.3199 14.8568 10.0554C14.4912 9.82147 14.1807 9.511 13.9468 9.14541C13.6823 8.7321 13.5553 8.22417 13.3014 7.20831L11.9999 2.00232Z" stroke="#C23893" stroke-width="2" stroke-linecap="round" stroke-linejoin="round"/>
</svg>
