<!DOCTYPE svg PUBLIC "-//W3C//DTD SVG 1.1//EN" "http://www.w3.org/Graphics/SVG/1.1/DTD/svg11.dtd">

<!-- Uploaded to: SVG Repo, www.svgrepo.com, Transformed by: SVG Repo Mixer Tools -->
<svg width="36px" height="36px" viewBox="0 -0.5 25 25" fill="none" xmlns="http://www.w3.org/2000/svg">

<g id="SVGRepo_bgCarrier" stroke-width="0"/>

<g id="SVGRepo_tracerCarrier" stroke-linecap="round" stroke-linejoin="round"/>

<g id="SVGRepo_iconCarrier"> <path d="M5.5 11.75C5.08579 11.75 4.75 12.0858 4.75 12.5C4.75 12.9142 5.08579 13.25 5.5 13.25V11.75ZM19.5 13.25C19.9142 13.25 20.25 12.9142 20.25 12.5C20.25 12.0858 19.9142 11.75 19.5 11.75V13.25ZM7.834 15.75C7.41979 15.75 7.084 16.0858 7.084 16.5C7.084 16.9142 7.41979 17.25 7.834 17.25V15.75ZM17.167 17.25C17.5812 17.25 17.917 16.9142 17.917 16.5C17.917 16.0858 17.5812 15.75 17.167 15.75V17.25ZM7.834 7.75C7.41979 7.75 7.084 8.08579 7.084 8.5C7.084 8.91421 7.41979 9.25 7.834 9.25V7.75ZM17.167 9.25C17.5812 9.25 17.917 8.91421 17.917 8.5C17.917 8.08579 17.5812 7.75 17.167 7.75V9.25ZM5.5 13.25H19.5V11.75H5.5V13.25ZM7.834 17.25H17.167V15.75H7.834V17.25ZM7.834 9.25H17.167V7.75H7.834V9.25Z" fill="#fff"/> </g>

</svg>