<!DOCTYPE svg PUBLIC "-//W3C//DTD SVG 1.1//EN" "http://www.w3.org/Graphics/SVG/1.1/DTD/svg11.dtd">

<!-- Uploaded to: SVG Repo, www.svgrepo.com, Transformed by: SVG Repo Mixer Tools -->
<svg width="60px" height="60px" viewBox="-0.5 0 25 25" fill="none" xmlns="http://www.w3.org/2000/svg">

<g id="SVGRepo_bgCarrier" stroke-width="0"/>

<g id="SVGRepo_tracerCarrier" stroke-linecap="round" stroke-linejoin="round"/>

<g id="SVGRepo_iconCarrier"> <path d="M22.0098 12.39V7.39001C22.0098 6.32915 21.5883 5.31167 20.8382 4.56152C20.0881 3.81138 19.0706 3.39001 18.0098 3.39001H6.00977C4.9489 3.39001 3.93148 3.81138 3.18134 4.56152C2.43119 5.31167 2.00977 6.32915 2.00977 7.39001V17.39C2.00977 18.4509 2.43119 19.4682 3.18134 20.2184C3.93148 20.9685 4.9489 21.39 6.00977 21.39H12.0098" stroke="#fff" stroke-width="1.5" stroke-linecap="round" stroke-linejoin="round"/> <path d="M21.209 5.41992C15.599 16.0599 8.39906 16.0499 2.78906 5.41992" stroke="#fff" stroke-width="1.5" stroke-linecap="round" stroke-linejoin="round"/> <path d="M15.0098 18.39H23.0098" stroke="#fff" stroke-width="1.5" stroke-linecap="round" stroke-linejoin="round"/> <path d="M20.0098 15.39L23.0098 18.39L20.0098 21.39" stroke="#fff" stroke-width="1.5" stroke-linecap="round" stroke-linejoin="round"/> </g>

</svg>