<?xml version="1.0" encoding="iso-8859-1"?>
<!-- Uploaded to: SVG Repo, www.svgrepo.com, Generator: SVG Repo Mixer Tools -->
<svg height="48px" width="48px" version="1.1" id="Layer_1" xmlns="http://www.w3.org/2000/svg" xmlns:xlink="http://www.w3.org/1999/xlink" 
	 viewBox="0 0 473.658 473.658" xml:space="preserve">
<circle style="fill:#65A844;" cx="236.829" cy="236.829" r="236.829"/>
<g>
	<path style="fill:#FFFFFF;" d="M263.922,186.034c0-31.3-0.004-62.601-0.007-93.898c0-3.803-3.123-7.064-6.959-7.064
		c-31.297,0-62.59,0.004-93.883,0.007c-6.167,0-9.353,7.625-4.985,11.997c12.333,12.333,24.67,24.67,37.007,37.007
		c-20.594,20.59-41.188,41.18-61.778,61.774c-12.782,12.782,7.128,32.542,19.94,19.726c20.557-20.557,41.113-41.113,61.666-61.67
		c12.356,12.356,24.704,24.704,37.056,37.056c2.345,2.345,5.153,2.476,7.461,1.406C261.925,191.554,263.922,189.444,263.922,186.034
		z"/>
	<path style="fill:#FFFFFF;" d="M167.59,361.511c0,6.499-5.265,11.765-11.765,11.765h-46.423c-6.492,0-11.765-5.265-11.765-11.765
		v-79.855c0-6.499,5.273-11.765,11.765-11.765h46.423c6.499,0,11.765,5.265,11.765,11.765L167.59,361.511L167.59,361.511z"/>
	<path style="fill:#FFFFFF;" d="M264.82,361.511c0,6.499-5.265,11.765-11.765,11.765h-46.423c-6.492,0-11.765-5.265-11.765-11.765
		V223.692c0-6.499,5.273-11.765,11.765-11.765h46.423c6.499,0,11.765,5.265,11.765,11.765L264.82,361.511L264.82,361.511z"/>
	<path style="fill:#FFFFFF;" d="M364.54,361.511c0,6.499-5.265,11.765-11.765,11.765h-46.423c-6.492,0-11.765-5.265-11.765-11.765
		V165.728c0-6.499,5.273-11.765,11.765-11.765h46.423c6.499,0,11.765,5.265,11.765,11.765L364.54,361.511L364.54,361.511z"/>
</g>
</svg>